# xmcd
#
# Track frame offsets:
#	150
#	11310
#	21495
#	32452
#	43877
#	54655
#	66920
#	81367
#	95050
#	109377
#	119465
#	131057
#	148432
#	162540
#	173157
#	182392
#	195797
#	207605
#	220565
#	234700
#
# Disc length: 3254 seconds
#
# Revision: 6
# Processed by: cddbd v1.5.2PL0 Copyright (c) Steve Scherf et al.
# Submitted via: EZCDAudioConverter 7.1.4.1
#
DISCID=2a0cb414
DTITLE=Charley Pride - The Essential Charley Pride
DYEAR=2003
DGENRE=Country
TTITLE0=Before I Met You
TTITLE1=Just Between You And Me
TTITLE2=I Know One
TTITLE3=The Day The World Stood Still
TTITLE4=The Easy Part's Over
TTITLE5=Let The Chips Fall
TTITLE6=Kaw-Liga
TTITLE7=All I Have To Offer You (Is Me)
TTITLE8=(I'm So) Afraid Of Losing You Again
TTITLE9=Is Anybody Goin' To San Antone
TTITLE10=Wonder Could I Live There Anymore
TTITLE11=Did You Think To Pray
TTITLE12=I Can't Believe That You've Stopped Loving Me
TTITLE13=I'm Just Me
TTITLE14=Kiss An Angel Good Mornin'
TTITLE15=All His Children
TTITLE16=It's Gonna Take A Little Bit Longer
TTITLE17=She's Too Good To Be True
TTITLE18=A Shoulder To Cry On
TTITLE19=Don't Fight The Feelings Of Love
EXTD=
EXTT0=
EXTT1=
EXTT2=
EXTT3=
EXTT4=
EXTT5=
EXTT6=
EXTT7=
EXTT8=
EXTT9=
EXTT10=
EXTT11=
EXTT12=
EXTT13=
EXTT14=
EXTT15=
EXTT16=
EXTT17=
EXTT18=
EXTT19=
PLAYORDER=
